<svg xmlns="http://www.w3.org/2000/svg" version="1.1" xmlns:xlink="http://www.w3.org/1999/xlink" width="500" height="500"><svg xmlns="http://www.w3.org/2000/svg" xmlns:xlink="http://www.w3.org/1999/xlink" width="500" zoomAndPan="magnify" viewBox="0 0 375 374.999991" height="500" preserveAspectRatio="xMidYMid meet" version="1.2"><defs><clipPath id="SvgjsClipPath1005"><path d="M 55.140625 56.308594 L 320 56.308594 L 320 318.691406 L 55.140625 318.691406 Z M 55.140625 56.308594 "></path></clipPath><clipPath id="SvgjsClipPath1004"><path d="M 72.390625 56.308594 L 302.609375 56.308594 C 307.183594 56.308594 311.570312 58.125 314.804688 61.359375 C 318.039062 64.597656 319.859375 68.984375 319.859375 73.558594 L 319.859375 301.441406 C 319.859375 306.015625 318.039062 310.402344 314.804688 313.640625 C 311.570312 316.875 307.183594 318.691406 302.609375 318.691406 L 72.390625 318.691406 C 67.816406 318.691406 63.429688 316.875 60.195312 313.640625 C 56.960938 310.402344 55.140625 306.015625 55.140625 301.441406 L 55.140625 73.558594 C 55.140625 68.984375 56.960938 64.597656 60.195312 61.359375 C 63.429688 58.125 67.816406 56.308594 72.390625 56.308594 Z M 72.390625 56.308594 "></path></clipPath></defs><g id="SvgjsG1003"><g clip-rule="nonzero" clip-path="url(#c5cf2b4e8e)"><g clip-rule="nonzero" clip-path="url(#d9d62190f0)"><path style=" stroke:none;fill-rule:nonzero;fill:#ffffff;fill-opacity:1;" d="M 55.140625 56.308594 L 319.574219 56.308594 L 319.574219 318.691406 L 55.140625 318.691406 Z M 55.140625 56.308594 "></path></g></g><path style=" stroke:none;fill-rule:evenodd;fill:#5865f2;fill-opacity:1;" d="M 276.113281 19.917969 C 253.734375 16.910156 225.078125 16.910156 188.589844 16.910156 C 152.097656 16.910156 121.535156 16.910156 99.15625 19.917969 C 76.226562 23 58.035156 29.445312 43.742188 43.742188 C 29.445312 58.035156 23 76.226562 19.917969 99.15625 C 16.910156 121.535156 16.910156 152.097656 16.910156 188.589844 C 16.910156 225.078125 16.910156 253.734375 19.917969 276.113281 C 23 299.042969 29.445312 317.234375 43.742188 331.53125 C 58.035156 345.824219 76.226562 352.269531 99.15625 355.355469 C 121.535156 358.363281 152.097656 358.363281 188.589844 358.363281 C 225.078125 358.363281 253.734375 358.363281 276.113281 355.355469 C 299.042969 352.269531 317.234375 345.824219 331.53125 331.53125 C 345.824219 317.234375 352.269531 299.042969 355.355469 276.113281 C 358.363281 253.734375 358.363281 225.078125 358.363281 188.589844 C 358.363281 152.097656 358.363281 121.535156 355.355469 99.15625 C 352.269531 76.226562 345.824219 58.035156 331.53125 43.742188 C 317.234375 29.445312 299.042969 23 276.113281 19.917969 Z M 187.636719 104.355469 C 141.640625 104.355469 104.355469 141.640625 104.355469 187.636719 C 104.355469 233.628906 141.640625 270.917969 187.636719 270.917969 C 204.609375 270.917969 220.398438 265.839844 233.5625 257.117188 L 259.140625 282.695312 C 265.644531 289.199219 276.191406 289.199219 282.695312 282.695312 C 289.199219 276.191406 289.199219 265.644531 282.695312 259.140625 L 257.117188 233.5625 C 265.839844 220.398438 270.917969 204.609375 270.917969 187.636719 C 270.917969 141.640625 233.628906 104.355469 187.636719 104.355469 Z M 137.667969 187.636719 C 137.667969 160.039062 160.039062 137.667969 187.636719 137.667969 C 215.230469 137.667969 237.605469 160.039062 237.605469 187.636719 C 237.605469 215.230469 215.230469 237.605469 187.636719 237.605469 C 160.039062 237.605469 137.667969 215.230469 137.667969 187.636719 Z M 137.667969 187.636719 "></path></g></svg><style>@media (prefers-color-scheme: light) { :root { filter: none; } }
@media (prefers-color-scheme: dark) { :root { filter: none; } }
</style></svg>